<svg xmlns="http://www.w3.org/2000/svg" viewBox="0 0 1200 720" role="img" aria-label="歌枠を登録">
  <defs>
    <linearGradient id="bg" x1="0" y1="0" x2="1" y2="1">
      <stop offset="0" stop-color="#0f1720"/><stop offset="1" stop-color="#071018"/>
    </linearGradient>
    <filter id="shadow"><feDropShadow dx="0" dy="8" stdDeviation="12" flood-opacity=".25"/></filter>
  </defs>
  <rect width="1200" height="720" rx="24" fill="url(#bg)"/>
  <rect x="34" y="28" width="1132" height="664" rx="18" fill="#111b24" stroke="#2b3a47"/>
  <rect x="34" y="28" width="1132" height="72" rx="18" fill="#17232d"/>
  <circle cx="72" cy="64" r="10" fill="#ef6b73"/><circle cx="104" cy="64" r="10" fill="#e5b85c"/><circle cx="136" cy="64" r="10" fill="#70c59b"/>
  <text x="170" y="70" font-family="system-ui,sans-serif" font-size="25" font-weight="700" fill="#f1f5f9">歌枠を登録</text>
  <text x="170" y="94" font-family="system-ui,sans-serif" font-size="13" fill="#8fa0ae">歌枠一覧 → 新しい歌枠</text>
  <rect x="70" y="135" width="1060" height="500" rx="12" fill="#17232d" stroke="#30404e"/><text x="100" y="175" font-family="system-ui,sans-serif" font-size="25" font-weight="700" fill="#f8fafc">新しい歌枠を登録</text><text x="100" y="220" font-family="system-ui,sans-serif" font-size="14" font-weight="400" fill="#9aaab7">YouTube動画URL または 動画ID</text><rect x="100" y="235" width="820" height="48" rx="8" fill="#0d151c" stroke="#344653"/><text x="120" y="266" font-family="system-ui,sans-serif" font-size="14" font-weight="400" fill="#dbe5ec">https://www.youtube.com/watch?v=XXXXXXXXXXX</text><rect x="940" y="235" width="160" height="48" rx="8" fill="#315d86" stroke="#3f769f"/><text x="968" y="266" font-family="system-ui,sans-serif" font-size="14" font-weight="700" fill="#fff">タイトル取得</text><text x="100" y="325" font-family="system-ui,sans-serif" font-size="14" font-weight="400" fill="#9aaab7">歌枠タイトル</text><rect x="100" y="340" width="1000" height="48" rx="8" fill="#0d151c" stroke="#344653"/><text x="120" y="371" font-family="system-ui,sans-serif" font-size="14" font-weight="400" fill="#dbe5ec">【歌枠】夜のまったり歌枠！</text><text x="100" y="430" font-family="system-ui,sans-serif" font-size="14" font-weight="400" fill="#9aaab7">配信元チャンネル</text><rect x="100" y="445" width="480" height="48" rx="8" fill="#0d151c" stroke="#344653"/><text x="120" y="476" font-family="system-ui,sans-serif" font-size="14" font-weight="400" fill="#dbe5ec">Sample Channel</text><text x="620" y="430" font-family="system-ui,sans-serif" font-size="14" font-weight="400" fill="#9aaab7">配信日</text><rect x="620" y="445" width="480" height="48" rx="8" fill="#0d151c" stroke="#344653"/><text x="640" y="476" font-family="system-ui,sans-serif" font-size="14" font-weight="400" fill="#dbe5ec">2026-09-25</text><rect x="920" y="545" width="180" height="54" rx="10" fill="#315d86" stroke="#3f769f"/><text x="968" y="579" font-family="system-ui,sans-serif" font-size="16" font-weight="700" fill="#fff">保存する</text>
</svg>